<?xml version="1.0" encoding="UTF-8"?>
<svg width="665px" height="573px" viewBox="0 0 665 573" version="1.1" xmlns="http://www.w3.org/2000/svg" xmlns:xlink="http://www.w3.org/1999/xlink">
    <title>mobile</title>
    <g id="Page-1" stroke="none" stroke-width="1" fill="none" fill-rule="evenodd">
        <g id="Desktop-HD-Copy" transform="translate(-683.000000, -379.000000)" fill-rule="nonzero">
            <g id="mobile" transform="translate(683.000000, 379.000000)">
                <path d="M42,376.043607 C42,376.043607 52.8359645,392.80827 48.9660502,397.347373 C45.096136,401.886476 78,402 78,402 C78,402 73.0574893,377.61249 74.5121659,372 L42,376.043607 Z" id="Path" fill="#FFB8B8"></path>
                <circle id="Oval" fill="#2F2E41" cx="59.5" cy="347.5" r="33.5"></circle>
                <polygon id="Path" fill="#FFB8B8" points="138 530 138 550 158 545.832711 156.333997 531.666916"></polygon>
                <path d="M208.519522,532 L264,541.166669 L249.922857,562 C249.922857,562 211.003715,548.666667 201.066913,548.666667 C191.130112,548.666667 208.519522,532 208.519522,532 Z" id="Path" fill="#FFB8B8"></path>
                <path d="M81.9272722,493.496091 C81.9272722,493.496091 123.290911,445.616322 136.527274,448.092864 C149.763637,450.569406 155.554548,465.428638 155.554548,465.428638 L163,538.899319 C163,538.899319 136.527274,541.375851 136.527274,538.899319 C136.527274,536.422787 131.563633,483.589933 131.563633,483.589933 C131.563633,483.589933 92.6818442,569.443304 72,512.482897 L81.9272722,493.496091 Z" id="Path" fill="#D0CDE1"></path>
                <path d="M16,526.319284 C16,526.319284 16.8251075,569.334543 41.5784122,571.797726 C66.3317168,574.260909 93.5603342,553.414315 93.5603342,553.414315 L138.116239,532.173425 C138.116239,532.173425 190.923279,559.982796 206.600371,552.593257 C206.600371,552.593257 223.102571,535.350987 212.376173,530.424651 C201.649775,525.498314 211.551065,530.424651 211.551065,530.424651 L148.017589,497.582245 C148.017589,497.582245 135.640936,494.298005 114.188081,503.329698 C92.7352266,512.361391 63.8563745,516.46666 63.8563745,516.46666 L16,526.319284 Z" id="Path" fill="#D0CDE1"></path>
                <circle id="Oval" fill="#FFB8B8" cx="57" cy="360" r="25"></circle>
                <path d="M93.1407956,429.267208 L91.4667257,464.193384 C91.4667257,464.193384 92.3037607,509.930038 84.7704264,513.25634 C80.961915,514.936081 73.3113749,518.312256 66.2384023,522.004476 C60.9316099,524.765317 55.9512297,527.692471 53.1722557,530.212172 C52.4354902,530.834735 51.8001898,531.566873 51.2889297,532.382569 C47.94078,538.20363 26.1778021,537.372027 21.1555726,533.214152 C16.1333431,529.056277 19.4815027,538.2036 15.2962781,539.866756 C11.2449931,541.480008 5.62850234,528.291212 9.06871235,508.599482 C9.17753639,507.94256 9.30311414,507.277302 9.43701372,506.603736 C13.2790325,487.519064 7.24397923,441.807331 8.17307449,424.144675 C8.22719637,422.795285 8.36980015,421.450835 8.5999788,420.119876 C11.1110836,406.814668 43.1529022,379.738577 49.1460763,391.272525 C56.5287072,405.509093 73.4871337,392.503235 76.4000072,386.025283 C93.1407556,385.19371 99,405.151522 99,405.151522 L93.1407956,429.267208 Z" id="Path" fill="#6C63FF"></path>
                <path d="M159.186744,542 C159.186744,542 145.98897,547.025143 141.864659,546.187621 C137.740347,545.350098 133.616055,548.700197 133.616055,553.72534 C133.616055,558.750482 128.666886,570.475782 136.09064,571.313364 C143.514395,572.150946 174.034234,570.475832 180.633091,572.988408 C180.633091,572.988408 210.328081,573.82593 207.853506,561.263069 C205.37893,548.700207 193.006006,549.537719 193.006006,549.537719 C193.006006,549.537719 159.186744,547.862665 159.186744,542 Z" id="Path" fill="#2F2E41"></path>
                <path d="M255.864002,545 C255.864002,545 257.522618,540 260.010537,540 C262.498457,540 282.401771,543.333333 284.8897,542.5 C287.37763,541.666672 316.403318,540 311.42748,554.166664 C306.451641,568.333328 289.865539,570 289.865539,570 C289.865539,570 260.010537,566.666667 255.863962,567.5 C251.717387,568.333328 236.789931,567.5 239.27785,563.333333 C241.765769,559.166669 257.522618,551.666662 255.864002,545 Z" id="Path" fill="#2F2E41"></path>
                <path d="M181.388561,425.900144 L185.9668,444.753818 C186.01784,444.964009 186.009905,445.184175 185.943864,445.39016 L165.176012,510.181238 C165.006548,510.709971 164.490213,511.04874 163.936826,510.994272 C163.383438,510.939804 162.943312,510.506895 162.880536,509.955303 L160.007543,484.715242 C159.988463,484.547626 160.005681,484.377873 160.058031,484.217478 L179.120657,425.812787 C179.284071,425.312098 179.760589,424.98058 180.287676,425.000883 C180.814763,425.021186 181.264277,425.388374 181.388561,425.900144 L181.388561,425.900144 Z" id="Path" fill="#3F3D56"></path>
                <polygon id="Path" fill="#FFFFFF" points="179.6875 428 184 444.121532 165.3125 503 161 484.77609"></polygon>
                <path d="M88.1304838,515.231772 C88.8265401,517.333851 160.519738,514.531085 161.215794,513.830398 C161.822662,512.952921 162.335926,512.013471 162.747073,511.027632 C163.401404,509.6262 164,508.224866 164,508.224866 L161.215794,485.536504 L90.2185936,483 C90.2185936,483 88.4436343,502.226962 88.0816748,511.027662 C87.9583662,512.427154 87.9747177,513.835563 88.1304838,515.231772 L88.1304838,515.231772 Z" id="Path" fill="#3F3D56"></path>
                <polygon id="Path" fill="#000000" opacity="0.1" points="152.622157 488 154 507 123 507 123 488"></polygon>
                <polygon id="Path" fill="#000000" opacity="0.1" points="111.815723 495.035702 112 495 111.130018 503 94 503 94 495.035702"></polygon>
                <path d="M88.1309048,515.227502 C88.8293166,517.341264 160.765128,514.522922 161.46354,513.818342 C162.072461,512.935987 162.587461,511.991318 163,511 L88.0819701,511 C87.9582291,512.407277 87.9746227,513.823524 88.1309048,515.227502 L88.1309048,515.227502 Z" id="Path" fill="#000000" opacity="0.1"></path>
                <circle id="Oval" fill="#2F2E41" cx="64.5" cy="312.5" r="9.5"></circle>
                <path d="M61.8845161,322 C61.8845161,322 52.2862642,337.846225 29.9671128,343.778262 C7.64796149,349.710298 29.784792,383 29.784792,383 C29.784792,383 21.7350336,370.894653 33.3457201,358.074767 C44.9564066,345.254881 63.641011,336.490228 61.8845161,322 Z" id="Path" fill="#2F2E41"></path>
                <path d="M65.9501868,521.936687 C63.8903293,525.809149 61.4718253,529.830807 61.0631922,531.456083 C60.7879666,532.558922 57.7357301,531.920444 52.9320665,530.121063 C43.2998358,526.497359 26.6039181,518.196982 11.0255354,509.896556 C10.3074817,509.517751 9.62628072,509.073593 8.9906712,508.56978 C9.09909524,507.914725 9.22421141,507.251357 9.35761882,506.579705 C13.1855158,487.549258 7.17264511,441.967405 8.09832536,424.354933 L15.1953468,422 L29.3726776,435.267404 L29.3726776,491.653901 C29.3726776,491.653901 66.066952,511.555007 68.5688368,513.213437 C69.8448224,514.059165 68.0851141,517.91503 65.9501868,521.936687 Z" id="Path" fill="#000000" opacity="0.1"></path>
                <path d="M96.2581922,475.314 L118.861205,487.077125 C118.861205,487.077125 132.255593,472.793339 140.62709,483.716234 C148.998588,494.639129 116.349784,498 116.349784,498 C116.349784,498 87.8866946,491.278217 87.0495579,482.035763 C86.2124211,472.793308 96.2581922,475.314 96.2581922,475.314 Z" id="Path" fill="#FFB8B8"></path>
                <path d="M58.3392422,506.629125 L71.7986099,509.906707 C71.7986099,509.906707 86.9404137,491.880002 102.923425,498.435146 C118.906437,504.99029 82.7343638,518.100637 82.7343638,518.100637 C82.7343638,518.100637 63.3865302,527.933383 55.8156283,519.739433 C48.2447265,511.545483 58.3392422,506.629125 58.3392422,506.629125 Z" id="Path" fill="#FFB8B8"></path>
                <path d="M87.7941179,396 C88.6470564,396.835571 98.0294103,403.520075 98.0294103,403.520075 C98.0294103,403.520075 100.588236,435.271468 97.1764718,441.955973 C93.7647077,448.640477 91.2058515,448.640477 93.7647077,451.98273 C96.3235639,455.324982 99.735328,452.8183 96.3235231,458.667235 C92.9117182,464.516169 89.5,463.680618 92.0588205,466.18731 C94.6176462,468.694002 93.7647077,469.529562 93.7647077,469.529562 L104,477.885188 C104,477.885188 97.7203914,487.683278 89.7719649,486.962051 C81.8235384,486.240824 75,448.640477 75,448.640477 L87.7941179,396 Z" id="Path" fill="#6C63FF"></path>
                <path d="M15.4238045,417 L7.94998398,419.487645 C7.94998398,419.487645 -11.9801842,492.458475 11.2716787,504.89671 C34.5235416,517.334945 60.2666779,529.773141 61.0971091,526.456284 C61.9275402,523.139427 71.0622328,509.87204 68.5709196,508.213567 C66.0796064,506.555094 29.5410045,486.654003 29.5410045,486.654003 L29.5410045,430.267407 L15.4238045,417 Z" id="Path" fill="#6C63FF"></path>
                <polygon id="Path" fill="#000000" opacity="0.1" points="26.6596848 447 25 487.109165 69 508 28.3203616 487.109165"></polygon>
                <path d="M665,132.241393 L665,197.175729 C664.996672,198.424718 663.987327,199.436395 662.741215,199.43973 L661.133542,199.43973 L661.133542,537.705302 C661.132453,557.1976 645.367485,573 625.9201,573 L415.044315,573 C405.706322,573 396.751187,569.279971 390.149148,562.660842 C383.54711,556.041713 379.839035,547.064861 379.840746,537.705302 L379.840746,211.303494 L378.676782,211.303494 C377.79756,211.304811 377.082967,210.592967 377.078864,209.711723 L377.078864,172.756187 C377.078772,172.331381 377.247093,171.923946 377.546778,171.623557 C377.846464,171.323168 378.252954,171.154444 378.676782,171.15452 L379.840746,171.15452 L379.840746,157.234419 L378.666908,157.234419 C377.743901,157.23086 377,156.478863 377,155.553719 L377,119.102304 C377,118.180537 377.747264,117.433871 378.666908,117.431491 L379.840746,117.431491 L379.840746,98.4296956 L378.647161,98.4296956 C378.254598,98.4302212 377.877963,98.274149 377.60038,97.995924 C377.322796,97.7176991 377.167083,97.3401942 377.167608,96.9467251 L377.167608,77.0551474 C377.16575,76.2337519 377.827664,75.5658866 378.647161,75.5622904 L379.840746,75.5622904 L379.840746,35.2848115 C379.841487,15.7978326 395.602237,0 415.044315,0 L625.920061,0 C645.364065,0 661.128105,15.7959017 661.133503,35.2848115 L661.133503,129.977421 L662.741176,129.977421 C663.987302,129.980708 664.996683,130.992389 665,132.241393 Z" id="Path" fill="#3F3D56"></path>
                <rect id="Rectangle" fill="#E6E8EC" x="494" y="18" width="39" height="8" rx="2.54189"></rect>
                <circle id="Oval" fill="#E6E8EC" cx="543" cy="23" r="5"></circle>
                <path d="M644,42.3869632 L644,540.622888 C643.994298,552.982904 633.974974,563 621.617324,563 L419.382694,563 C413.444986,563.010315 407.747351,560.656376 403.547825,556.4579 C399.348298,552.259423 396.992295,546.561737 397,540.622888 L397,42.3869632 C397,36.4494962 399.357861,30.7551416 403.55548,26.5567184 C407.7531,22.3582952 413.446364,20 419.382694,20 L449.651185,20 L449.651185,23.8843615 C449.651267,34.0648214 457.902559,42.3176943 468.081069,42.3177761 L570.932671,42.3177761 C581.111193,42.3177215 589.362501,34.0648327 589.362556,23.8843615 L589.362556,20 L621.617324,20 C627.554168,20 633.248408,22.3560773 637.446391,26.5548645 C641.644374,30.7536517 644,36.4489817 644,42.3869632 Z" id="Path" fill="#FFFFFF"></path>
                <rect id="Rectangle" fill="#E6E6E6" x="418" y="348" width="206" height="26"></rect>
                <rect id="Rectangle" fill="#E6E6E6" x="418" y="396" width="206" height="26"></rect>
                <rect id="Rectangle" fill="#E6E6E6" x="418" y="443" width="206" height="26"></rect>
                <circle id="Oval" fill="#6C63FF" cx="601.5" cy="89.5" r="19.5"></circle>
                <rect id="Rectangle" fill="#E6E6E6" x="417" y="156" width="206" height="136"></rect>
                <path d="M499.811979,232.226859 C505.812225,254.318252 526.364395,268 526.364395,268 C526.364395,268 537.188257,245.864533 531.188021,223.773141 C525.187785,201.681748 504.635605,188 504.635605,188 C504.635605,188 493.811743,210.135526 499.811979,232.226859 Z" id="Path" fill="#3F3D56"></path>
                <path d="M508.407728,228.363025 C524.976273,244.379278 527,269 527,269 C527,269 502.160808,267.653227 485.592262,251.636975 C469.023717,235.620722 467,211 467,211 C467,211 491.839182,212.346763 508.407728,228.363025 Z" id="Path" fill="#6C63FF"></path>
                <path d="M554.188021,232.226837 C548.187775,254.318243 527.635605,268 527.635605,268 C527.635605,268 516.811743,245.86452 522.811979,223.773114 C528.812215,201.681707 549.364395,188 549.364395,188 C549.364395,188 560.188257,210.13549 554.188021,232.226837 Z" id="Path" fill="#3F3D56"></path>
                <path d="M545.592266,228.363025 C529.023727,244.379278 527,269 527,269 C527,269 551.839186,267.653227 568.407734,251.636975 C584.976283,235.620722 587,211 587,211 C587,211 562.160804,212.346763 545.592266,228.363025 Z" id="Path" fill="#6C63FF"></path>
            </g>
        </g>
    </g>
</svg>